# xmcd
#
# Track frame offsets:
#	150
#	15433
#	29128
#	46418
#	64408
#	82638
#	97970
#	113433
#	129040
#	144170
#	156355
#	172588
#	189320
#	201978
#	220888
#
# Disc length: 3204 seconds
#
# Revision: 10
# Processed by: cddbd v1.5.2PL0 Copyright (c) Steve Scherf et al.
# Submitted via: EasyCDDAExtractor 10.0.2.1
#
DISCID=b70c820f
DTITLE=LEANDRO and LEONARDO - GRANDES SUCESSOS [CD 2-07-800-002) GEL CHANTECLER
DYEAR=1991
DGENRE=Blues
TTITLE0=ENTRE TAPAS E BEIJOS (BY GILMAR SINISTRO)
TTITLE1=CADE VOCÊ (BY GILMAR SINISTRO)
TTITLE2=TALVEZ VOCÊ SE LEMBRE (BY GILMAR SINISTRO)
TTITLE3=O CHEIRO DA MAÇA (BY GILMAR SINISTRO)
TTITLE4=SOLIDÃO (BY GILMAR SINISTRO)
TTITLE5=CORAÇÃO QUER TE ENCONTRAR (BY GILMAR SINISTRO)
TTITLE6=MAIS UMA VEZ SOZINHO (MARCAS DE AMOR)V
TTITLE7=PRA NUNCA DIZER ADEUS (BY GILMAR SINISTRO)
TTITLE8=PENSE EM MIM (BY GILMAR SINISTRO)
TTITLE9=SÓ FAZENDO AMOR (BY GILMAR SINISTRO)
TTITLE10=QUEM SERÁ ESSA MULHER (BY GILMAR SINISTRO)
TTITLE11=VOCÊ AINDA VAI VOLTAR (BY GILMAR SINISTRO)
TTITLE12=PONTO FRACO (BY GILMAR SINISTRO)
TTITLE13=DESCULPE, MAS EU VOU CHORAR (BY GILMAR SINISTRO)
TTITLE14=TALISMÃ (BY GILMAR SINISTRO)
EXTD=
EXTT0=
EXTT1=
EXTT2=
EXTT3=
EXTT4=
EXTT5=
EXTT6=
EXTT7=
EXTT8=
EXTT9=
EXTT10=
EXTT11=
EXTT12=
EXTT13=
EXTT14=
PLAYORDER=
